<?xml version="1.0" encoding="iso-8859-1"?>
<!-- Generator: Adobe Illustrator 19.0.0, SVG Export Plug-In . SVG Version: 6.00 Build 0)  -->
<svg version="1.1" id="Capa_1" xmlns="http://www.w3.org/2000/svg" xmlns:xlink="http://www.w3.org/1999/xlink" x="0px" y="0px"
	 viewBox="0 0 211.921 211.921" style="enable-background:new 0 0 211.921 211.921;" xml:space="preserve">
<path style="fill:#DDDDDD;" d="M160.878,76.398v41.006h23.467V76.398c0-3.297,2.27-5.968,5.069-5.968h1.971V59.378h-37.547V70.43
	h1.971C158.609,70.43,160.878,73.103,160.878,76.398z"/>
<path d="M184.345,120.818h-23.467c-1.884,0-3.413-1.529-3.413-3.413V76.398c0-1.463-0.874-2.555-1.655-2.555h-1.971
	c-1.884,0-3.413-1.529-3.413-3.413V59.378c0-1.884,1.529-3.413,3.413-3.413h37.547c1.884,0,3.413,1.529,3.413,3.413V70.43
	c0,1.884-1.529,3.413-3.413,3.413h-1.971c-0.782,0-1.655,1.092-1.655,2.555v41.006C187.758,119.288,186.229,120.818,184.345,120.818
	z M164.292,113.991h16.64V76.398c0-4.63,3.048-8.487,7.04-9.245v-4.362h-30.72v4.362c3.992,0.759,7.04,4.617,7.04,9.245V113.991z"/>
<path style="fill:#85D839;" d="M160.878,117.404v72.619c0,6.368,4.48,12.052,10.581,12.657c6.997,0.693,12.885-5.006,12.885-12.133
	v-73.143L160.878,117.404L160.878,117.404z"/>
<path d="M172.631,206.151c-0.5,0-1.002-0.026-1.509-0.075c-7.658-0.758-13.657-7.81-13.657-16.053v-72.619
	c0-1.884,1.529-3.413,3.413-3.413h23.467c1.884,0,3.413,1.529,3.413,3.413v73.143c0,4.485-1.877,8.759-5.149,11.721
	C179.814,204.801,176.317,206.151,172.631,206.151z M164.292,120.818v69.205c0,4.775,3.296,8.844,7.504,9.26
	c2.285,0.224,4.504-0.51,6.231-2.074c1.847-1.673,2.905-4.101,2.905-6.663v-69.729H164.292z"/>
<path style="fill:#85D839;" d="M69.476,31.112c-5.163-5.495-28.648-10.554-28.648-10.554s3.582,23.755,8.745,29.251
	s13.804,5.765,19.299,0.602C74.369,45.248,74.639,36.607,69.476,31.112z"/>
<path d="M59.538,57.526c-0.181,0-0.364-0.002-0.546-0.009c-4.557-0.142-8.784-2.051-11.906-5.374
	c-5.608-5.97-9.008-26.935-9.632-31.077c-0.167-1.109,0.22-2.229,1.038-2.997c0.817-0.768,1.961-1.085,3.055-0.85
	c4.096,0.882,24.81,5.584,30.416,11.554c6.443,6.859,6.105,17.681-0.754,24.124C68.02,55.894,63.895,57.526,59.538,57.526z
	 M45.054,25.055c1.676,8.96,4.454,19.698,7.006,22.415c1.874,1.993,4.41,3.139,7.144,3.224c2.748,0.089,5.337-0.899,7.33-2.772
	c4.116-3.866,4.32-10.359,0.454-14.474C64.433,30.728,53.889,27.285,45.054,25.055z"/>
<path style="fill:#85D839;" d="M148.242,42.028c6.506-7.002,9.296-38.615,9.296-38.615s-31.321,5.103-37.828,12.105
	c-6.506,7.002-5.393,18.615,2.485,25.935C130.073,48.774,141.735,49.03,148.242,42.028z"/>
<path d="M136.142,50.513c-5.678,0-11.569-2.193-16.271-6.56c-9.245-8.59-10.44-22.388-2.662-30.758
	c6.951-7.482,34.357-12.268,39.781-13.152c1.036-0.167,2.101,0.152,2.872,0.869c0.771,0.717,1.169,1.751,1.077,2.801
	c-0.483,5.473-3.244,33.155-10.196,40.637l0,0C146.92,48.465,141.631,50.513,136.142,50.513z M153.687,7.56
	c-11.74,2.219-27.807,6.332-31.476,10.283c-5.216,5.613-4.18,15.082,2.307,21.11c6.489,6.028,16.009,6.364,21.224,0.753l0,0
	C149.413,35.752,152.337,19.43,153.687,7.56z M148.242,42.028h0.017H148.242z"/>
<path d="M81.667,128.132c-1.638,0-3.084-1.183-3.362-2.854c-3.193-19.154,4.792-41.726,23.733-67.091
	c13.887-18.598,28.447-31.546,29.061-32.087c1.411-1.249,3.569-1.116,4.816,0.295c1.249,1.411,1.118,3.569-0.294,4.818
	c-0.575,0.509-57.499,51.441-50.582,92.943c0.311,1.859-0.945,3.618-2.806,3.927C82.042,128.117,81.853,128.132,81.667,128.132z"/>
<path d="M92.398,83.271c-1.884,0-3.413-1.529-3.413-3.413c0-11.445-5.161-20.635-15.341-27.319
	c-7.892-5.181-15.973-6.864-16.053-6.881c-1.845-0.375-3.041-2.174-2.668-4.019c0.374-1.845,2.166-3.048,4.012-2.673
	c0.369,0.073,36.878,7.759,36.878,40.893C95.812,81.742,94.283,83.271,92.398,83.271z"/>
<path style="fill:#FBAD4A;" d="M78.858,84.073c0,0,10.793-10.793,23.745,2.159c0,0,8.634-2.159,12.952,8.634
	c0,0,19.429,0,17.27,30.222c0,0,12.952,19.429-6.477,32.381c0,0,4.318,17.27-10.793,23.745c0,0,4.318,12.952-8.634,15.111
	c0,0-15.111,25.904-28.063,2.159h-0.089c-12.952,23.745-28.063-2.159-28.063-2.159c-12.952-2.159-8.634-15.111-8.634-15.111
	c-15.111-6.477-10.793-23.745-10.793-23.745c-19.429-12.952-6.477-32.381-6.477-32.381c-2.159-30.222,17.27-30.222,17.27-30.222
	c4.318-10.793,12.952-8.634,12.952-8.634c12.952-12.952,23.745-2.159,23.745-2.159H78.858z"/>
<path d="M66.452,211.918c-8.74,0-15.503-8.957-17.864-12.546c-3.963-0.969-6.885-2.98-8.699-5.992
	c-2.161-3.589-2.115-7.625-1.722-10.303c-10.298-5.908-11.631-17.13-10.648-24.1c-14.708-11.206-10.88-26.941-6.192-34.773
	c-0.652-11.677,1.743-20.523,7.122-26.301c3.975-4.268,8.595-5.712,11.307-6.199c3.806-7.559,10.006-9.276,14.097-9.068
	c10.88-9.876,20.588-5.704,24.928-2.842c1.481-0.997,3.611-2.145,6.263-2.809c4.541-1.137,11.377-1.004,18.727,5.651
	c4.086-0.201,10.291,1.507,14.099,9.068c2.712,0.488,7.332,1.93,11.307,6.199c5.388,5.786,7.781,14.645,7.12,26.342
	c1.096,1.929,3.282,6.327,3.959,11.756c0.809,6.472-0.379,15.546-10.15,22.98c0.983,6.97-0.352,18.19-10.648,24.098
	c0.391,2.678,0.439,6.716-1.722,10.305c-1.812,3.012-4.736,5.023-8.701,5.992c-2.376,3.615-9.247,12.681-18.046,12.544
	c-4.519-0.065-8.602-2.476-12.179-7.183c-3.577,4.707-7.66,7.119-12.179,7.183C66.575,211.916,66.513,211.918,66.452,211.918z
	 M53.162,89.449c-1.828,0-5.562,0.788-7.921,6.685c-0.519,1.295-1.773,2.145-3.169,2.145c-0.166,0.003-4.857,0.143-8.724,4.379
	c-4.081,4.47-5.859,12.141-5.14,22.187c0.053,0.754-0.145,1.507-0.565,2.137c-0.022,0.036-2.879,4.434-3.526,10.074
	c-0.816,7.11,2.232,13.022,9.056,17.57c1.2,0.8,1.768,2.268,1.418,3.668c-0.142,0.58-3.376,14.553,8.825,19.78
	c1.633,0.7,2.454,2.533,1.894,4.217c-0.398,1.239-1.108,5.048,0.44,7.59c0.983,1.613,2.787,2.62,5.516,3.074
	c1.002,0.167,1.876,0.77,2.388,1.647c1.719,2.927,7.356,10.487,12.798,10.487c0.031,0,0.061,0,0.092,0
	c3.168-0.051,6.272-2.823,9.228-8.241c0.599-1.097,1.748-1.778,2.997-1.778c1.249,0,2.487,0.683,3.084,1.778
	c2.956,5.419,6.06,8.192,9.228,8.241c5.451,0.08,11.163-7.543,12.892-10.491c0.512-0.872,1.388-1.476,2.384-1.642
	c2.741-0.457,4.552-1.471,5.531-3.098c1.816-3.017,0.442-7.521,0.427-7.566c-0.561-1.684,0.261-3.517,1.893-4.217
	c12.201-5.228,8.967-19.2,8.823-19.792c-0.338-1.393,0.227-2.862,1.422-3.657c6.823-4.55,9.87-10.46,9.056-17.57
	c-0.647-5.642-3.504-10.04-3.531-10.085c-0.411-0.626-0.613-1.381-0.56-2.128c0.717-10.045-1.06-17.717-5.14-22.187
	c-3.866-4.234-8.557-4.374-8.755-4.378c-1.37-0.027-2.628-0.872-3.137-2.145c-3.176-7.938-8.721-6.647-8.955-6.589
	c-1.164,0.29-2.394-0.051-3.241-0.898c-4.465-4.465-9.004-6.161-13.488-5.038c-3.255,0.814-5.408,2.859-5.431,2.879
	c-0.64,0.64-1.509,1-2.413,1h-0.087c-0.905,0-1.773-0.36-2.413-1c-0.857-0.828-8.796-7.963-18.918,2.159
	c-0.848,0.848-2.079,1.188-3.241,0.898C54.072,89.516,53.698,89.449,53.162,89.449z M78.858,84.073h0.017H78.858z"/>
<path style="fill:#FFDD95;" d="M55.024,109.977c0,0,0-10.793-12.952-15.111"/>
<path d="M55.024,113.39c-1.876,0-3.398-1.512-3.413-3.383c-0.01-0.408-0.341-8.477-10.617-11.902
	c-1.789-0.597-2.755-2.529-2.159-4.318c0.597-1.789,2.533-2.751,4.318-2.159c15.113,5.038,15.287,17.809,15.287,18.348
	C58.438,111.863,56.91,113.39,55.024,113.39z"/>
<path d="M40.678,164.696c-3.683,0-7.525-1.51-11.467-4.514c-1.498-1.142-1.789-3.284-0.645-4.784
	c1.142-1.498,3.284-1.789,4.784-0.645c3.468,2.642,6.537,3.601,9.131,2.862c3.901-1.12,6.513-6.023,7.19-7.817
	c0.664-1.76,2.625-2.656,4.39-1.999c1.761,0.657,2.662,2.609,2.01,4.374c-0.145,0.393-3.649,9.66-11.662,11.989
	C43.183,164.518,41.939,164.696,40.678,164.696z"/>
<path style="fill:#FFDD95;" d="M57.183,189.847c0,0-2.159-8.634,6.477-17.27"/>
<path d="M57.166,193.242c-1.526,0-2.908-1.021-3.294-2.565c-0.106-0.428-2.514-10.624,7.375-20.511c1.331-1.333,3.495-1.333,4.826,0
	c1.333,1.333,1.333,3.494,0,4.826c-7.043,7.043-5.632,13.783-5.569,14.066c0.408,1.824-0.72,3.659-2.538,4.089
	C57.699,193.211,57.431,193.242,57.166,193.242z"/>
<path d="M47.622,138.18c-9.677,0-16.505-8.37-16.85-8.8c-1.178-1.473-0.939-3.62,0.532-4.797c1.468-1.178,3.613-0.94,4.792,0.526
	c0.307,0.379,7.241,8.752,15.502,5.446c4.55-1.819,7.395-4.048,9.68-5.837c2.877-2.251,6.135-4.803,10.383-2.679
	c1.686,0.843,2.369,2.893,1.526,4.579c-0.843,1.686-2.895,2.371-4.579,1.526c-0.119-0.06-0.174-0.07-0.174-0.07
	c-0.445,0.061-1.891,1.193-2.947,2.021c-2.488,1.949-5.898,4.618-11.354,6.801C51.86,137.801,49.675,138.18,47.622,138.18z"/>
<path style="fill:#FFDD95;" d="M102.516,109.977c0,0,0-10.793,12.952-15.111"/>
<path d="M102.516,113.39c-1.884,0-3.413-1.529-3.413-3.413c0-0.541,0.174-13.312,15.287-18.348c1.778-0.596,3.721,0.369,4.318,2.159
	c0.596,1.789-0.37,3.721-2.159,4.318c-10.496,3.499-10.617,11.79-10.617,11.873C105.929,111.863,104.4,113.39,102.516,113.39z"/>
<path d="M116.862,164.696c-1.263,0-2.505-0.178-3.729-0.532c-8.013-2.33-11.517-11.595-11.662-11.989
	c-0.654-1.768,0.251-3.732,2.019-4.384c1.763-0.652,3.726,0.247,4.381,2.012c0.679,1.797,3.29,6.695,7.188,7.813
	c2.589,0.741,5.661-0.22,9.131-2.862c1.502-1.142,3.642-0.852,4.784,0.645c1.142,1.5,0.853,3.642-0.645,4.784
	C124.387,163.187,120.545,164.696,116.862,164.696z"/>
<path style="fill:#FFDD95;" d="M97.293,180.309c0,0,2.159-8.634-6.477-17.27"/>
<path d="M97.297,183.724c-0.275,0-0.553-0.034-0.831-0.102c-1.818-0.456-2.927-2.287-2.492-4.105
	c0.077-0.352,1.437-7.057-5.569-14.063c-1.333-1.333-1.333-3.494,0-4.826c1.331-1.333,3.494-1.333,4.826,0
	c9.888,9.887,7.48,20.082,7.375,20.511C100.217,182.688,98.826,183.724,97.297,183.724z"/>
<path d="M115.159,141.765c-4.895,0-10.854-1.428-15.145-7.137c-3.529-4.697-5.057-8.748-6.173-11.708
	c-0.469-1.244-1.111-2.946-1.493-3.268c0.003,0.017-0.061-0.01-0.162-0.019c-1.879-0.155-3.275-1.804-3.121-3.683
	c0.154-1.879,1.806-3.285,3.683-3.121c4.733,0.391,6.193,4.263,7.482,7.68c1.026,2.717,2.301,6.098,5.245,10.015
	c5.398,7.185,15.961,3.434,16.067,3.396c1.77-0.65,3.731,0.265,4.376,2.034c0.645,1.77-0.265,3.731-2.034,4.376
	C123.572,140.448,119.857,141.765,115.159,141.765z"/>
<path d="M78.771,201.896c-1.884,0-3.413-1.529-3.413-3.413V84.073c0-1.884,1.529-3.413,3.413-3.413c1.884,0,3.413,1.529,3.413,3.413
	v114.41C82.184,200.367,80.655,201.896,78.771,201.896z"/>
<path d="M59.339,163.041c-0.65,0-1.309-0.184-1.889-0.573c-12.228-8.153-8.929-23.366-5.477-30.271
	c0.845-1.686,2.896-2.371,4.581-1.527s2.367,2.888,1.529,4.574c-0.304,0.616-7.096,14.71,3.156,21.545
	c1.568,1.046,1.992,3.164,0.947,4.733C61.525,162.506,60.443,163.041,59.339,163.041z"/>
<g>
</g>
<g>
</g>
<g>
</g>
<g>
</g>
<g>
</g>
<g>
</g>
<g>
</g>
<g>
</g>
<g>
</g>
<g>
</g>
<g>
</g>
<g>
</g>
<g>
</g>
<g>
</g>
<g>
</g>
</svg>
