<svg height="512pt" viewBox="-106 0 512 512" width="512pt" xmlns="http://www.w3.org/2000/svg"><path d="m298.109375 266.601562c-6.300781 31.5-31.796875 56.996094-62.996094 63.597657-6 1.199219-11.699219 1.800781-17.703125 1.800781-2.996094 0-6 2.699219-8.699218 2.398438h-117.601563c-8.695313.902343-17.398437-2.398438-26.398437-4.199219-31.199219-6.601563-56.699219-32.097657-63-63.597657-5.398438-27.003906 2.101562-54.003906 20.703124-73.5 10.199219-12.902343 18.597657-23.5 26.097657-32.203124 28.5-32.097657 41.402343-47.800782 41.402343-99.699219 0-34.199219 27-61.199219 60-61.199219 32.996094 0 60 27 60 60 0 53.101562 12.898438 68.800781 41.398438 100.898438 7.5 8.703124 15.898438 19.300781 25.199219 30.703124 19.5 20.996094 27 47.996094 21.597656 75zm0 0" fill="#ffcebf"/><path d="m298.109375 266.601562c-6.300781 31.5-31.796875 56.996094-62.996094 63.597657-6 1.199219-11.699219 1.800781-17.703125 1.800781-2.996094 0-6 2.699219-8.699218 2.398438h-58.800782v-334.398438c33 0 60 27 60 60 0 53.097656 12.902344 68.800781 41.402344 100.898438 7.5 8.703124 15.898438 19.300781 25.199219 30.703124 19.5 20.996094 27 47.996094 21.597656 75zm0 0" fill="#ffa78f"/><path d="m239.910156 272c0 49.5-40.496094 90-90 90-49.5 0-90-40.5-90-90h30c0 33 27.003906 60 60 60 33 0 60-27 60-60zm0 0" fill="#ffbfab"/><path d="m178.414062 477.5c0 12.902344-6.902343 24.898438-19.503906 34.5l-18-24c4.800782-3.601562 7.5-7.5 7.5-10.5s-2.699218-6.898438-7.5-10.5c-12.597656-9.601562-19.5-21.597656-19.5-34.5 0-12.898438 6.902344-24.898438 19.5-34.5l18 24c-4.796875 3.601562-7.5 7.5-7.5 10.5s2.703125 6.898438 7.5 10.5c12.601563 9.601562 19.503906 21.601562 19.503906 34.5zm0 0" fill="#d77180"/><path d="m218.90625 511.996094-17.988281-23.992188c4.832031-3.632812 7.617187-7.457031 7.617187-10.503906s-2.785156-6.867188-7.617187-10.503906c-12.65625-9.488282-19.628907-21.734375-19.628907-34.496094 0-12.757812 6.972657-25.003906 19.628907-34.496094l17.988281 23.992188c-4.835938 3.636718-7.617188 7.457031-7.617188 10.503906s2.78125 6.871094 7.617188 10.503906c12.65625 9.492188 19.628906 21.738282 19.628906 34.496094 0 12.761719-6.972656 25.007812-19.628906 34.496094zm0 0" fill="#cf5668"/><path d="m98.90625 511.996094-17.988281-23.992188c4.832031-3.632812 7.617187-7.457031 7.617187-10.503906s-2.785156-6.867188-7.617187-10.503906c-12.65625-9.488282-19.628907-21.734375-19.628907-34.496094 0-12.757812 6.972657-25.003906 19.628907-34.496094l17.988281 23.992188c-4.835938 3.636718-7.617188 7.457031-7.617188 10.503906s2.78125 6.871094 7.617188 10.503906c12.65625 9.492188 19.628906 21.738282 19.628906 34.496094 0 12.761719-6.972656 25.007812-19.628906 34.496094zm0 0" fill="#d77180"/><path d="m178.414062 477.5c0 12.902344-6.902343 24.898438-19.503906 34.5l-9-12v-90l9 12c-4.796875 3.601562-7.5 7.5-7.5 10.5s2.703125 6.898438 7.5 10.5c12.601563 9.601562 19.503906 21.601562 19.503906 34.5zm0 0" fill="#cf5668"/><path d="m239.910156 272c0 49.5-40.496094 90-90 90v-30c33 0 60-27 60-60zm0 0" fill="#f89580"/></svg>