<svg height="512pt" viewBox="-61 0 512 512" width="512pt" xmlns="http://www.w3.org/2000/svg"><path d="m180 226h30v271h-30zm0 0" fill="#5bc980"/><path d="m195 226h15v271h-15zm0 0" fill="#00ab5e"/><path d="m0 482h390v30h-390zm0 0" fill="#537983"/><path d="m360 151c0-16.5-6.597656-31.5-18-42.300781 1.800781-5.699219 3-11.699219 3-17.699219 0-30.601562-23.101562-57.101562-53.101562-60.699219-10.5-18.300781-30.300782-30.300781-51.898438-30.300781-18 0-33.898438 8.097656-45 20.699219-11.101562-12.601563-27-20.699219-45-20.699219-21.597656 0-41.398438 12-51.898438 30.300781-30 3.597657-53.101562 30.097657-53.101562 60.699219 0 6 1.199219 12 3 17.699219-11.402344 10.800781-18 25.800781-18 42.300781s6.597656 31.5 18 42.300781c-1.800781 5.699219-3 11.699219-3 17.699219 0 30.597656 23.101562 56.101562 53.101562 59.699219 10.5 18.300781 30.300782 30.300781 51.898438 30.300781 18 0 33.898438-8.101562 45-20.699219 10.800781 12.597657 27 20.699219 45 20.699219 21.597656 0 41.398438-12 51.898438-30.300781 30-3.597657 53.101562-29.101563 53.101562-59.699219 0-6-1.199219-12-3-17.699219 11.402344-10.800781 18-25.800781 18-42.300781zm0 0" fill="#ffb99c"/><path d="m342 193.300781c1.800781 5.699219 3 11.699219 3 17.699219 0 30.597656-23.101562 56.101562-53.101562 59.699219-10.5 18.300781-30.300782 30.300781-51.898438 30.300781-18 0-34.199219-8.101562-45-20.699219v-259.601562c11.101562-12.601563 27-20.699219 45-20.699219 21.597656 0 41.398438 12 51.898438 30.300781 30 3.597657 53.101562 30.097657 53.101562 60.699219 0 6-1.199219 12-3 17.699219 11.402344 10.800781 18 25.800781 18 42.300781s-6.597656 31.5-18 42.300781zm0 0" fill="#ff9468"/><path d="m150 271c-12.566406 0-23.878906-8.070312-28.125-20.082031l-6.269531-9.917969h-10.605469c-16.539062 0-30-13.460938-30-30 0-.660156.207031-1.292969.25-1.949219 4.789062 1.210938 9.667969 1.921875 14.605469 1.921875 14.191406 0 28.679687-4.953125 41.628906-14.636718l-17.988281-24.023438c-12.246094 9.15625-25.691406 11.132812-36.898438 5.539062-10.242187-5.128906-16.597656-15.410156-16.597656-26.851562s6.355469-21.722656 16.597656-26.851562c11.21875-5.625 24.683594-3.617188 36.898438 5.539062l17.988281-24.023438c-17.449219-13.050781-37.617187-17.003906-56.179687-12.300781-.066407-.796875-.304688-1.5625-.304688-2.363281 0-16.507812 13.402344-30.941406 31.65625-30.941406h.117188l11.320312.730468 3.78125-10.707031c4.246094-12.011719 15.558594-20.082031 28.125-20.082031 16.539062 0 30 13.460938 30 30v76h-30v30h30v75c0 16.539062-13.460938 30-30 30zm0 0" fill="#ffcebf"/><path d="m283.34375 240.941406c-.042969 0-.070312 0-.117188 0l-11.320312-.730468-3.78125 10.707031c-4.246094 12.011719-15.558594 20.082031-28.125 20.082031-16.539062 0-30-13.460938-30-30v-75h30v-30h-30v-76c0-16.539062 13.460938-30 30-30 12.566406 0 23.878906 8.070312 28.125 20.082031l6.269531 9.917969h10.605469c16.539062 0 30 14.460938 30 31 0 .800781-.238281 1.566406-.304688 2.359375-18.558593-4.699219-38.730468-.742187-56.179687 12.304687l17.988281 24.023438c12.21875-9.171875 25.636719-11.191406 36.898438-5.539062 10.242187 5.128906 16.597656 15.410156 16.597656 26.851562s-6.355469 21.722656-16.597656 26.851562c-11.25 5.609376-24.667969 3.617188-36.898438-5.539062l-17.988281 24.023438c12.949219 9.683593 27.4375 14.636718 41.632813 14.636718 4.9375 0 9.8125-.710937 14.601562-1.921875.042969.65625.25 1.289063.25 1.949219 0 16.507812-13.402344 29.941406-31.65625 29.941406zm0 0" fill="#ffb99c"/><path d="m195 482h195v30h-195zm0 0" fill="#3e5959"/><path d="m360 331v30c0 49.800781-40.199219 91-90 91h-150c-49.800781 0-90-41.199219-90-91v-30h75c49.800781 0 90 41.199219 90 91 0-49.800781 40.199219-91 90-91zm0 0" fill="#7fe881"/><path d="m270 452h-75v-30c0-49.800781 40.199219-91 90-91h75v30c0 49.800781-40.199219 91-90 91zm0 0" fill="#5bc980"/></svg>