<svg id="cactus" xmlns="http://www.w3.org/2000/svg" viewBox="0 0 168.88 417.26">
  <defs>
    <style>
      .cls-1 {
        fill: #73a533;
      }

      .cls-2 {
        fill: #8dc63f;
      }

      .cls-3 {
        fill: #ee986b;
      }

      .cls-4 {
        fill: #d48660;
      }

      .cls-5 {
        fill: #d47e57;
      }

      .cls-6 {
        fill: #b16444;
      }

      .cls-7 {
        fill: #d28760;
      }

      .cls-8 {
        fill: #fdb913;
      }
    </style>
  </defs>
  <title>cactus_mike</title>
  <path id="right-arm" class="cls-1" d="M457.22,447.47a12.91,12.91,0,0,0-14.43,11.07l-6.41,48.7h-12.2a11.13,11.13,0,0,0,0,22.25h24.2a11.06,11.06,0,0,0,7.1-2.58,12.82,12.82,0,0,0,5.4-8.83l7.4-56.19A12.9,12.9,0,0,0,457.22,447.47Z" transform="translate(-299.51 -368.06)"/>
  <g id="base">
    <path class="cls-2" d="M386.4,368.06c-15,0-36.36,12.31-36.36,27.36l9,245.17A27.44,27.44,0,0,0,386.4,668h2.87V368.06Z" transform="translate(-299.51 -368.06)"/>
    <path class="cls-2" d="M416.17,653.61a28.93,28.93,0,0,1-2.13,3.33A28.93,28.93,0,0,0,416.17,653.61Z" transform="translate(-299.51 -368.06)"/>
    <path class="cls-2" d="M410.5,660.83a28.38,28.38,0,0,0,3.54-3.89A28.38,28.38,0,0,1,410.5,660.83Z" transform="translate(-299.51 -368.06)"/>
    <polygon class="cls-2" points="92.62 0 92.62 0 92.62 0 92.62 0"/>
    <path class="cls-2" d="M419.17,644.75a27.14,27.14,0,0,1-1.35,5.23A27.14,27.14,0,0,0,419.17,644.75Z" transform="translate(-299.51 -368.06)"/>
    <path class="cls-2" d="M392.13,668a27.18,27.18,0,0,0,8.11-1.23,27.18,27.18,0,0,1-8.11,1.23Z" transform="translate(-299.51 -368.06)"/>
    <path class="cls-2" d="M402.75,665.8c-.82.34-1.65.65-2.51.92C401.1,666.45,401.93,666.14,402.75,665.8Z" transform="translate(-299.51 -368.06)"/>
    <path class="cls-2" d="M417.82,650c-.31.83-.65,1.65-1,2.45C417.17,651.63,417.51,650.81,417.82,650Z" transform="translate(-299.51 -368.06)"/>
    <path class="cls-2" d="M409.51,661.69a29.3,29.3,0,0,1-3.22,2.29A29.3,29.3,0,0,0,409.51,661.69Z" transform="translate(-299.51 -368.06)"/>
    <path class="cls-2" d="M419.49,640.59a27.16,27.16,0,0,1-.32,4.16,27.16,27.16,0,0,0,.32-4.16Z" transform="translate(-299.51 -368.06)"/>
    <path class="cls-1" d="M419.49,640.59l9-245.17c0-15.05-21.31-27.36-36.36-27.36h-2.86V668h2.86a27.18,27.18,0,0,0,8.11-1.23c.86-.27,1.69-.58,2.51-.92a28.12,28.12,0,0,0,3.54-1.82,29.3,29.3,0,0,0,3.22-2.29c.33-.28.67-.57,1-.86a28.38,28.38,0,0,0,3.54-3.89,28.93,28.93,0,0,0,2.13-3.33c.22-.39.42-.78.61-1.18.39-.8.73-1.62,1-2.45a27.26,27.26,0,0,0,1.67-9.39Z" transform="translate(-299.51 -368.06)"/>
  </g>
  <g id="pot">
    <path class="cls-3" d="M329.22,671l7.07,107.74a7.22,7.22,0,0,0,7.37,6.55h45.61V671Z" transform="translate(-299.51 -368.06)"/>
    <path class="cls-4" d="M389.27,671V785.32h45.6a7.65,7.65,0,0,0,5.06-1.89c.16-.15.32-.3.47-.47a6.76,6.76,0,0,0,.81-1,6.61,6.61,0,0,0,1-3.15L449.31,671Z" transform="translate(-299.51 -368.06)"/>
    <polygon class="cls-4" points="150.07 296.82 149.83 302.48 150.21 296.82 150.07 296.82"/>
    <polygon class="cls-5" points="89.75 296.82 29.44 296.82 29.68 302.48 29.7 302.97 29.71 302.97 89.75 302.97 89.75 296.82"/>
    <polygon class="cls-3" points="160.24 280.06 160.24 280.06 160.24 292.91 160.24 292.91 160.24 280.06"/>
    <polygon class="cls-3" points="156.76 296.82 156.76 296.82 156.76 296.82 156.76 296.82"/>
    <polygon class="cls-3" points="156.76 276.14 156.76 276.14 156.76 276.14 156.76 276.14"/>
    <path class="cls-3" d="M389.27,664.88V644.2h-67a3.72,3.72,0,0,0-3.48,3.92V661a3.71,3.71,0,0,0,3.48,3.91h6.56l.37,5.66-.23-5.66Z" transform="translate(-299.51 -368.06)"/>
    <polygon class="cls-6" points="150.07 296.82 89.75 296.82 89.75 302.97 149.8 302.97 149.81 302.97 149.83 302.48 150.07 296.82"/>
    <path class="cls-7" d="M459.76,647.5a3.4,3.4,0,0,0-3.49-3.3h-67v20.68h67a3.4,3.4,0,0,0,3.49-3.3V647.5Z" transform="translate(-299.51 -368.06)"/>
  </g>
  <path id="left-arm" class="cls-2" d="M352.81,539.57H341.35l-5.16-48.47a12.85,12.85,0,1,0-25.56,2.72l6,56.35a12.71,12.71,0,0,0,2.58,6.41,11.12,11.12,0,0,0,9.42,5.24h24.19a11.13,11.13,0,1,0,0-22.25Z" transform="translate(-299.51 -368.06)"/>
  
  <circle id="circle-pot" class="cls-8" cx="32.83" cy="326.57" r="14.85"/>
  <circle id="circle-soil" class="cls-8" cx="114.12" cy="274.79" r="14.85"/>
  <circle id="circle-top" class="cls-8" cx="121.93" cy="34.61" r="14.85"/>
  <circle id="circle-arm" class="cls-8" cx="14.85" cy="137.72" r="14.85"/>
  
</svg>
