<svg xmlns="http://www.w3.org/2000/svg" width="777.426" height="798.237" viewBox="0 0 777.426 798.237">
  <g id="Group_14" data-name="Group 14" transform="translate(0)">
    <path id="Path_162" data-name="Path 162" d="M862.937,259.673s-14.573,8.407-10.089,20.178c0,0,15.133,4.484,21.3,15.694s53.807,51.565,53.807,51.565l34.75-17.375s-12.089-16.138-50.323-27.406c0,0-22.541-24.159-30.387-28.643S862.937,259.673,862.937,259.673Z" transform="translate(-226.249 -39.573)" fill="#cbcdda"/>
    <path id="Path_163" data-name="Path 163" d="M862.937,259.673s-14.573,8.407-10.089,20.178c0,0,15.133,4.484,21.3,15.694s53.807,51.565,53.807,51.565l34.75-17.375s-12.089-16.138-50.323-27.406c0,0-22.541-24.159-30.387-28.643S862.937,259.673,862.937,259.673Z" transform="translate(-226.249 -39.573)" opacity="0.05"/>
    <path id="Path_164" data-name="Path 164" d="M325.325,826.824c-7.482,1.849-15.31-.309-23.016-.4s-16.7,3.148-18.587,10.62c-2.537,10.036,9.2,17.6,19.241,20.1,38.99,9.7,80.264-2.891,120.113,2.246,16.793,2.165,33.123,7.462,50.008,8.725C511.73,871.01,549.491,852.63,588.19,854.7c19.388,1.038,38.232,7.2,57.623,8.183,46.394,2.363,92.165-24.872,137.583-15.113,12.825,2.756,24.866,8.374,37.573,11.628,32.126,8.226,65.948.894,98.289-6.442,6.422-1.457,14.164-4.292,14.955-10.829.873-7.214-7.41-11.737-14.3-14.042-75.354-25.2-156.031-38.552-234.629-26.9-17.886,2.651-35.721,6.59-53.8,6.329-40.017-.576-76.788-21.45-116.074-29.086-74.44-14.468-148.867,19.286-217.2,52.161" transform="translate(-192.464 -70.191)" fill="#8bc34a" opacity="0.1"/>
    <path id="Path_165" data-name="Path 165" d="M436.226,602.735H413.438V795.4s147.089,47.649,290.035,0V602.735Z" transform="translate(-200.192 -59.956)" fill="#3f3d56"/>
    <ellipse id="Ellipse_65" data-name="Ellipse 65" cx="142.945" cy="21.753" rx="142.945" ry="21.753" transform="translate(213.246 522.062)" fill="#3f3d56"/>
    <ellipse id="Ellipse_66" data-name="Ellipse 66" cx="142.945" cy="21.753" rx="142.945" ry="21.753" transform="translate(213.246 522.062)" opacity="0.1"/>
    <path id="Path_166" data-name="Path 166" d="M729.476,341.144C693.415,474.446,569.9,557,569.9,557s-65.05-133.568-28.989-266.868S700.486,74.276,700.486,74.276,765.536,207.844,729.476,341.144Z" transform="translate(-207.119 -28.557)" fill="#3f3d56"/>
    <path id="Path_167" data-name="Path 167" d="M392.614,341.144C428.675,474.446,552.19,557,552.19,557s65.05-133.568,28.989-266.868S421.6,74.276,421.6,74.276,356.554,207.844,392.614,341.144Z" transform="translate(-198.308 -28.557)" fill="#8bc34a"/>
    <path id="Path_168" data-name="Path 168" d="M434.017,320.949c98.95,96.324,111.036,244.4,111.036,244.4s-148.344-8.1-247.295-104.424-111.037-244.4-111.037-244.4S335.066,224.624,434.017,320.949Z" transform="translate(-186.721 -37.009)" fill="#3f3d56"/>
    <path id="Path_169" data-name="Path 169" d="M678.725,320.949c-98.95,96.324-111.037,244.4-111.037,244.4s148.345-8.1,247.3-104.424,111.036-244.4,111.036-244.4S777.675,224.624,678.725,320.949Z" transform="translate(-209.357 -37.009)" fill="#3f3d56"/>
    <circle id="Ellipse_67" data-name="Ellipse 67" cx="45.577" cy="45.577" r="45.577" transform="translate(312.686 0)" fill="#8bc34a"/>
    <path id="Path_170" data-name="Path 170" d="M277.389,415.789c3.232,11.726,14.459,18.861,14.459,18.861s5.988-11.878,2.756-23.6-14.459-18.861-14.459-18.861S274.157,404.063,277.389,415.789Z" transform="translate(-192.052 -47.446)" fill="#8bc34a"/>
    <path id="Path_171" data-name="Path 171" d="M341.687,485.541c-3.479,11.656,2.257,23.658,2.257,23.658s11.376-6.9,14.854-18.551-2.257-23.658-2.257-23.658S345.166,473.885,341.687,485.541Z" transform="translate(-195.862 -51.891)" fill="#8bc34a"/>
    <path id="Path_172" data-name="Path 172" d="M805.043,565.834c-8.538,8.664-9.1,21.955-9.1,21.955s13.281-.757,21.818-9.421,9.1-21.955,9.1-21.955S813.581,557.169,805.043,565.834Z" transform="translate(-222.919 -57.204)" fill="#8bc34a"/>
    <path id="Path_173" data-name="Path 173" d="M958.853,767.971s1.681,24.662,4.484,27.464-25.222,4.484-25.222,4.484l3.923-31.948Z" transform="translate(-231.366 -69.774)" fill="#ffb9b9"/>
    <path id="Path_174" data-name="Path 174" d="M958.853,767.971s1.681,24.662,4.484,27.464-25.222,4.484-25.222,4.484l3.923-31.948Z" transform="translate(-231.366 -69.774)" opacity="0.05"/>
    <path id="Path_175" data-name="Path 175" d="M962.47,787.735s-3.923,0-17.936,7.286c0,0-9.528-1.681-13.452-15.133,0,0-11.77,20.178-19.617,21.3s-22.98,2.243-12.891,15.694,69.5,7.286,69.5,7.286S969.756,791.659,962.47,787.735Z" transform="translate(-228.817 -70.482)" fill="#cbcdda"/>
    <path id="Path_176" data-name="Path 176" d="M962.47,787.735s-3.923,0-17.936,7.286c0,0-9.528-1.681-13.452-15.133,0,0-11.77,20.178-19.617,21.3s-22.98,2.243-12.891,15.694,69.5,7.286,69.5,7.286S969.756,791.659,962.47,787.735Z" transform="translate(-228.817 -70.482)" opacity="0.05"/>
    <path id="Path_177" data-name="Path 177" d="M955.9,807.2l-3.923,10.649L926.2,810.566,927.666,800l.353-2.55.981-7.057s21.859-5.6,21.859-2.8a43.476,43.476,0,0,0,1.435,6.827c.9,3.447,2.023,7.376,2.78,9.96C955.567,806.082,955.9,807.2,955.9,807.2Z" transform="translate(-230.658 -70.893)" fill="#ffb9b9"/>
    <path id="Path_178" data-name="Path 178" d="M940.925,644.72c-1.766,2.987-3.767,8.592-.05,15.6a27.16,27.16,0,0,0,4.03,5.588c12.331,13.452,15.694,43.718,15.694,43.718v48.762l-8.407.645-13.452,1.037-20.178-82.952s-11.77-60.533-6.165-71.182,10.649-77.347,10.649-77.347l4.652-4.82,11.042-11.434h31.948a21.483,21.483,0,0,1,6.216,6.95c5.364,8.878,10.178,27.341-4.534,61.43-22.98,53.246-29.706,61.654-29.706,61.654A12.912,12.912,0,0,0,940.925,644.72Z" transform="translate(-229.748 -54.585)" fill="#4c4c78"/>
    <path id="Path_179" data-name="Path 179" d="M940.925,644.72c-1.766,2.987-3.767,8.592-.05,15.6a27.16,27.16,0,0,0,4.03,5.588c12.331,13.452,15.694,43.718,15.694,43.718v48.762l-8.407.645-13.452,1.037-20.178-82.952s-11.77-60.533-6.165-71.182,10.649-77.347,10.649-77.347l4.652-4.82,11.042-11.434h31.948a21.483,21.483,0,0,1,6.216,6.95c5.364,8.878,10.178,27.341-4.534,61.43-22.98,53.246-29.706,61.654-29.706,61.654A12.912,12.912,0,0,0,940.925,644.72Z" transform="translate(-229.748 -54.585)" opacity="0.05"/>
    <path id="Path_180" data-name="Path 180" d="M952.409,794.412l-24.275,3.032.981-7.057s21.859-5.6,21.859-2.8a43.484,43.484,0,0,0,1.435,6.827Z" transform="translate(-230.773 -70.893)" opacity="0.1"/>
    <path id="Path_181" data-name="Path 181" d="M937.314,572.335s1.4,44.122,1.625,71.855c.05,6.272.045,11.709-.05,15.6a34.551,34.551,0,0,1-.454,6.149c-1.682,5.044,1.681,16.254,1.681,16.254,14.012,36.992,10.089,69.5,10.089,69.5v24.661l-26.9,3.363s4.484-3.363-7.847-35.871c-7.085-18.676-8.62-36.976-8.643-49.172a52.621,52.621,0,0,0-3.935-19.455,24,24,0,0,1-1.435-6.479c-1.121-11.21-6.165-25.222-6.165-25.222s-13.452-39.795-16.815-68.94a160.531,160.531,0,0,1,.779-41.695,104.066,104.066,0,0,1,2.023-10.431s54.793-34.481,75.481-10.649a26.984,26.984,0,0,1,4.669,7.847,51.8,51.8,0,0,1,2.646,8.732C970.5,560.009,937.314,572.335,937.314,572.335Z" transform="translate(-227.763 -54.055)" fill="#4c4c78"/>
    <circle id="Ellipse_68" data-name="Ellipse 68" cx="28.585" cy="28.585" r="28.585" transform="translate(679.285 215.616)" fill="#ffb9b9"/>
    <path id="Path_182" data-name="Path 182" d="M922.507,303.263s11.77,33.069,0,50.444,37.553,11.77,37.553,11.77l19.057-22.98s-22.42,0-23.541-39.234S922.507,303.263,922.507,303.263Z" transform="translate(-230.331 -41.127)" fill="#ffb9b9"/>
    <path id="Path_183" data-name="Path 183" d="M976.66,525.254a73.555,73.555,0,0,1-12.488,3.128c-6.978,1.076-15.212,1.115-20.021-3.128-2.853-2.517-9.881-2.825-18.328-2.018-17.79,1.7-41.869,8.34-46.47,9.646a104.007,104.007,0,0,1,2.023-10.431s54.793-34.481,75.481-10.649h11.955a21.482,21.482,0,0,1,6.216,6.95C976.061,523.214,976.66,525.254,976.66,525.254Z" transform="translate(-227.875 -54.055)" opacity="0.1"/>
    <path id="Path_184" data-name="Path 184" d="M955.9,808.037l-3.923,10.649L926.2,811.4l1.468-10.571c4.428,9.8,11.983,11.131,11.983,11.131,8.149-4.237,12.886-6.008,15.425-6.754C955.567,806.915,955.9,808.037,955.9,808.037Z" transform="translate(-230.658 -71.726)" opacity="0.1"/>
    <path id="Path_185" data-name="Path 185" d="M955.319,805.016s-3.923,0-17.936,7.286c0,0-9.528-1.681-13.452-15.133,0,0-11.77,20.178-19.617,21.3s-22.98,2.242-12.891,15.694,69.5,7.286,69.5,7.286S962.605,808.94,955.319,805.016Z" transform="translate(-228.393 -71.509)" fill="#cbcdda"/>
    <path id="Path_186" data-name="Path 186" d="M818.194,289.864s1.094-21.83,24.036-19.693a3.922,3.922,0,0,1,3.095,5.742l-4.7,8.854Z" transform="translate(-224.241 -40.188)" fill="#ffb9b9"/>
    <path id="Path_187" data-name="Path 187" d="M950.615,348.883s-27.464-4.484-34.75-10.089c0,0-5.6,10.649-15.694,5.044s-33.629-5.044-33.629-5.044S846.925,328.145,843,304.044c0,0-3.923-14.573-2.8-18.5,0,0-14.573-15.133-21.859,5.044,2.8,14.012,5.044,12.891,4.484,24.1l8.968,24.662s.56,8.407,16.815,19.617,34.75,28.585,34.75,28.585-9.809,5.325-6.165,29.706c4.453,29.8-2.242,72.3-2.242,72.3V517.03s56.049-16.254,65.577-7.847,32.508,0,32.508,0-2.8-9.528-6.726-32.508.56-45.4.56-45.4,14.573-38.674,21.3-54.367-5.044-36.992-16.815-44.839-16.154-3.136-16.154-3.136S975.838,343.839,950.615,348.883Z" transform="translate(-224.25 -40.787)" fill="#cbcdda"/>
    <path id="Path_188" data-name="Path 188" d="M905.71,275.612a9.909,9.909,0,0,0,.581,3.424,10.8,10.8,0,0,0,2.629,3.266c4.2,4.1,7.879,8.976,9.357,14.656,1,3.845.946,7.876.886,11.848-.244,16.093-.918,33.463-10.858,46.122-3.653,4.652-8.349,8.352-12.764,12.289a3.85,3.85,0,0,0-1.341,1.8,3.361,3.361,0,0,0,.416,2.218c2.048,4.26,6.368,6.873,10.458,9.244,1.869,1.084,3.838,2.2,6,2.267,5.1.165,8.464-5.218,13.1-7.336,6.752-3.083,14.329,1.208,21.031,4.4a74.108,74.108,0,0,0,15.183,5.3c7.174,1.655,15.285,2.061,21.324-2.149a16.285,16.285,0,0,0,6.643-10.394c.485-2.739.41-5.918,2.483-7.773,1.068-.955,2.526-1.352,3.682-2.2,1.793-1.313,2.646-3.523,3.409-5.61l6.9-18.878a15.513,15.513,0,0,0,1.349-6.34c-.331-4.545-4.523-7.845-8.732-9.593s-8.864-2.609-12.565-5.269c-6.259-4.5-8.19-12.895-8.753-20.581a99.079,99.079,0,0,1,.113-15.853c.684-7.819,2.212-16.145-1.266-23.182-3.715-7.515-12.049-11.352-19.767-14.626-2.964-1.257-6.007-2.533-9.223-2.675-3.4-.15-6.717.981-9.936,2.1-5.114,1.773-10.3,4.07-15.583,5.272-2.966.676-6.216.17-9.077,1.243C900.882,252.535,905.71,267.151,905.71,275.612Z" transform="translate(-228.755 -38.402)" opacity="0.1"/>
    <path id="Path_189" data-name="Path 189" d="M905.71,274.421a9.911,9.911,0,0,0,.581,3.424,10.8,10.8,0,0,0,2.629,3.266c4.2,4.1,7.88,8.976,9.357,14.656,1,3.845.946,7.875.886,11.848-.244,16.093-.918,33.463-10.858,46.122-3.653,4.652-8.349,8.352-12.764,12.289a3.85,3.85,0,0,0-1.341,1.8,3.361,3.361,0,0,0,.416,2.218c2.048,4.26,6.368,6.873,10.458,9.244,1.869,1.084,3.838,2.2,6,2.267,5.1.165,8.464-5.218,13.1-7.336,6.752-3.083,14.329,1.208,21.031,4.4a74.112,74.112,0,0,0,15.183,5.294c7.174,1.655,15.285,2.061,21.324-2.148a16.284,16.284,0,0,0,6.643-10.394c.485-2.739.41-5.918,2.483-7.773,1.068-.955,2.526-1.352,3.682-2.2,1.792-1.313,2.646-3.523,3.409-5.61l6.9-18.878a15.511,15.511,0,0,0,1.349-6.34c-.331-4.545-4.523-7.845-8.732-9.593s-8.864-2.609-12.566-5.269c-6.259-4.5-8.19-12.895-8.753-20.581a99.071,99.071,0,0,1,.113-15.853c.684-7.819,2.212-16.146-1.266-23.182-3.715-7.515-12.049-11.352-19.766-14.626-2.964-1.257-6.007-2.533-9.223-2.675-3.4-.15-6.717.981-9.936,2.1-5.114,1.773-10.3,4.07-15.583,5.272-2.966.676-6.216.17-9.077,1.243C900.882,251.344,905.71,265.959,905.71,274.421Z" transform="translate(-228.755 -38.331)" fill="#b96b6b"/>
    <path id="Path_190" data-name="Path 190" d="M882.412,438.961s4.471-1.083,26.891-4.446S970.957,439,970.957,439" transform="translate(-228.057 -49.912)" opacity="0.05"/>
    <path id="Path_191" data-name="Path 191" d="M227.389,535.79c3.232,11.727,14.459,18.86,14.459,18.86s5.988-11.878,2.756-23.6-14.459-18.86-14.459-18.86S224.157,524.063,227.389,535.79Z" transform="translate(-189.081 -54.576)" fill="#8bc34a"/>
  </g>
</svg>
